<svg width="75" height="81" viewBox="0 0 75 81" fill="none" xmlns="http://www.w3.org/2000/svg">
<path d="M74.6834 41.5714C74.6834 41.4101 74.4591 41.1774 74.2874 41.1103C73.2385 40.6993 72.1797 40.3068 71.1123 39.9442C67.801 38.8166 64.4315 38.0031 60.9144 37.8803C58.0757 37.779 55.2853 38.0844 52.4864 38.4798C48.0737 39.1021 44.1123 40.7292 40.6165 43.4469C38.5897 42.7465 36.5643 42.0424 34.5403 41.3344C35.8535 40.2918 36.8663 38.9156 37.4741 37.3479C37.5763 37.0953 37.6671 36.8355 37.7494 36.5743C39.0715 35.8406 40.2155 34.8213 41.099 33.5898C42.2076 32.0501 43.0167 30.3134 43.4835 28.4714C44.02 26.4318 44.4458 24.3607 45.0448 22.3411C45.7857 19.8418 46.6983 17.4054 48.2937 15.2887C49.4817 13.7186 51.0458 12.7909 52.9661 12.4626C53.3647 12.4164 53.7656 12.3926 54.1669 12.3912V13.1791C54.1669 15.7483 54.1953 18.3175 54.1669 20.8866C54.1073 25.3113 55.643 29.148 58.4093 32.5279C59.434 33.7796 60.622 34.8615 62.1762 35.3825C65.1838 36.3816 67.8308 35.5581 70.0365 33.4314C73.2839 30.3012 74.7529 26.2948 74.8395 21.8701C74.9815 14.9975 74.8977 8.12068 74.9076 1.24528C74.9076 1.09256 74.8821 0.938406 74.8665 0.752855L23.3886 0.805665C15.9598 0.725736 8.52811 0.759991 1.09646 0.75C0.967602 0.756807 0.839201 0.770625 0.711824 0.791392L0.703308 0.881313L3.86843 1.94609V44.5316H3.87836C3.87836 53.9662 3.87505 63.4013 3.86843 72.8368C3.86843 73.2436 3.97346 73.4434 4.36094 73.609C8.5863 75.4046 12.8003 77.2244 17.0186 79.0328C17.1506 79.0899 17.2911 79.1299 17.4274 79.1755C17.3123 78.9976 17.1684 78.8403 17.0016 78.7102C14.4467 76.5593 11.9927 74.3269 9.84668 71.7449C6.63472 67.8812 4.79526 63.4821 4.65048 58.4523C4.53694 54.4843 4.61926 50.5107 4.61642 46.5399C4.62795 46.4203 4.64691 46.3016 4.67319 46.1845L38.3257 73.4006C38.9176 74.0692 39.5459 74.7044 40.2077 75.3032C43.6964 78.4605 47.8409 80.1347 52.4764 80.6285C54.3429 80.8269 56.1937 80.8384 58.0119 80.2289C60.676 79.3368 62.7851 77.6597 64.7182 75.6829C65.0153 75.3805 65.3762 75.1493 65.7742 75.0063C66.7195 74.678 67.4774 75.1491 68.1587 75.7443C69.3041 76.7348 69.9286 78.0465 70.4084 79.4638V58.7991L47.8707 59.096V59.6898L65.0276 60.1108V60.8074C65.0163 64.9195 64.9836 69.0301 65.012 73.1408C65.0191 73.9515 64.792 74.521 64.2002 75.0691C62.162 76.9575 60.0216 78.7202 57.2625 79.3397C52.9576 80.3045 49.1325 79.1042 45.8155 76.2752C44.6436 75.2669 43.6343 74.0819 42.8235 72.7626C42.1749 71.708 41.627 70.594 41.1871 69.4355C41.1473 69.3313 41.1076 69.2285 41.0692 69.1243C39.5491 64.9951 39.1915 60.7117 39.6598 56.3498C39.8172 54.8718 40.1143 53.4122 40.5469 51.9908C41.3415 49.3598 42.6587 46.9183 44.4189 44.8142C47.8125 40.7706 52.282 38.8595 57.4768 38.6154C60.534 38.4726 63.4479 39.1178 66.112 40.6479C70.0166 42.8902 72.7829 46.1645 74.4861 50.3437C74.6082 50.642 74.7316 50.9403 74.8693 51.2757C74.9147 51.1929 74.9445 51.1629 74.9445 51.133C74.8679 47.9443 74.7927 44.7543 74.6834 41.5714ZM30.6641 40.7835C29.3767 42.5962 27.3627 43.6381 24.8448 43.6724C19.9836 43.738 15.1195 43.7038 10.2569 43.7109C10.1227 43.7027 9.98915 43.6874 9.85661 43.6652V22.3482H11.5598C15.1555 22.3482 18.7459 22.3482 22.3312 22.3482C24.0471 22.3482 25.7376 22.5366 27.3201 23.2389C30.0311 24.4378 31.4547 26.643 32.055 29.4634C32.6492 32.2593 32.6006 35.1547 31.9131 37.9288C31.7312 38.6965 31.4446 39.4353 31.0615 40.1241C30.9406 40.3488 30.8079 40.5671 30.6641 40.7778V40.7835ZM39.6442 7.63397C39.3783 7.13595 39.0615 6.66716 38.6989 6.23519H73.9496C73.9496 6.49782 73.9496 6.67338 73.9496 6.85037C73.9751 10.7812 74.0163 14.712 74.0135 18.6443C74.016 19.7104 73.9443 20.7754 73.7992 21.8315C73.2669 25.6168 71.1989 28.1702 67.5456 29.2836C65.2845 29.973 62.9739 29.9216 60.6831 29.2836C58.5739 28.6955 57.0268 27.4452 56.3257 25.3356C55.9496 24.2052 55.616 23.0119 55.5578 21.8315C55.4159 18.7756 55.4315 15.7112 55.3847 12.6496C55.3847 12.4198 55.3847 12.19 55.3847 11.9687C49.7669 11.5206 44.7851 13.8014 41.8783 18.8827C40.7428 20.8595 39.8798 22.9891 38.909 25.0573C38.3413 26.2848 37.7735 27.5208 37.2129 28.7512C36.6892 27.6976 35.9531 26.7652 35.0513 26.0136C32.5449 23.9181 29.514 22.5558 26.2897 22.0756C26.6161 22.0756 26.944 22.0899 27.2704 22.0756C31.2446 21.8715 34.8242 20.6269 37.8346 17.9364C40.845 15.2459 41.5504 11.2051 39.6442 7.63397ZM9.85661 1.58784C10.0044 1.56645 10.1531 1.55263 10.3023 1.54644C13.8506 1.5807 17.4061 1.54644 20.9544 1.6749C23.7292 1.77196 26.4685 2.19873 29.0361 3.36771C32.3006 4.85069 33.9087 7.46982 34.1826 10.9853C34.5318 15.4557 32.3829 18.2861 28.4528 20.2386C26.8063 21.0579 25.0378 21.3891 23.2083 21.3919C18.8964 21.3976 14.5854 21.3976 10.2753 21.3919C10.1533 21.3919 10.0326 21.3691 9.84951 21.3505L9.85661 1.58784ZM10.2824 44.533C14.8953 44.533 19.5076 44.5307 24.1195 44.5259C27.0863 44.541 30.0145 43.8489 32.6639 42.5063C34.2337 43.8836 35.7609 45.2824 37.1476 46.8524C36.6357 47.5101 36.1763 48.2073 35.7737 48.9378C34.1812 51.8338 33.3708 54.9468 33.2075 58.2367C33.1189 59.8969 33.2045 61.5618 33.463 63.2038L10.2824 44.533Z" fill="#F34606"/>
</svg>
